<?xml version="1.0" encoding="UTF-8" standalone="no"?>
<!DOCTYPE svg PUBLIC "-//W3C//DTD SVG 1.1//EN"
 "http://www.w3.org/Graphics/SVG/1.1/DTD/svg11.dtd">
<!-- Generated by graphviz version 13.1.1 (20250719.2154)
 -->
<!-- Title: G Pages: 1 -->
<svg width="422pt" height="190pt"
 viewBox="0.00 0.00 422.00 190.00" xmlns="http://www.w3.org/2000/svg" xmlns:xlink="http://www.w3.org/1999/xlink">
<g id="graph0" class="graph" transform="scale(1 1) rotate(0) translate(4 186)">
<title>G</title>
<polygon fill="white" stroke="none" points="-4,4 -4,-186 418,-186 418,4 -4,4"/>
<!-- 14253409728 -->
<g id="node1" class="node">
<title>14253409728</title>
<ellipse fill="white" stroke="black" cx="27" cy="-126" rx="27" ry="18"/>
<text xml:space="preserve" text-anchor="middle" x="27" y="-120.95" font-family="Times,serif" font-size="14.00">U3</text>
</g>
<!-- 14253410832 -->
<g id="node2" class="node">
<title>14253410832</title>
<ellipse fill="lightblue" stroke="black" cx="117" cy="-118" rx="27" ry="18"/>
<text xml:space="preserve" text-anchor="middle" x="117" y="-112.95" font-family="Times,serif" font-size="14.00">Can</text>
</g>
<!-- 14253409728&#45;&gt;14253410832 -->
<g id="edge1" class="edge">
<title>14253409728&#45;&gt;14253410832</title>
<path fill="none" stroke="black" d="M53.93,-123.64C61.65,-122.94 70.26,-122.16 78.56,-121.4"/>
<polygon fill="black" stroke="black" points="78.8,-124.9 88.45,-120.5 78.17,-117.92 78.8,-124.9"/>
</g>
<!-- 14253422496 -->
<g id="node6" class="node">
<title>14253422496</title>
<ellipse fill="white" stroke="black" cx="207" cy="-164" rx="27" ry="18"/>
<text xml:space="preserve" text-anchor="middle" x="207" y="-158.95" font-family="Times,serif" font-size="14.00">U3</text>
</g>
<!-- 14253410832&#45;&gt;14253422496 -->
<g id="edge2" class="edge">
<title>14253410832&#45;&gt;14253422496</title>
<path fill="none" stroke="black" d="M138.85,-128.9C149.63,-134.53 162.98,-141.51 174.94,-147.77"/>
<polygon fill="black" stroke="black" points="173.16,-150.79 183.65,-152.32 176.41,-144.58 173.16,-150.79"/>
</g>
<!-- 14253413760 -->
<g id="node7" class="node">
<title>14253413760</title>
<ellipse fill="white" stroke="black" cx="207" cy="-110" rx="27" ry="18"/>
<text xml:space="preserve" text-anchor="middle" x="207" y="-104.95" font-family="Times,serif" font-size="14.00">U3</text>
</g>
<!-- 14253410832&#45;&gt;14253413760 -->
<g id="edge3" class="edge">
<title>14253410832&#45;&gt;14253413760</title>
<path fill="none" stroke="black" d="M143.93,-115.64C151.65,-114.94 160.26,-114.16 168.56,-113.4"/>
<polygon fill="black" stroke="black" points="168.8,-116.9 178.45,-112.5 168.17,-109.92 168.8,-116.9"/>
</g>
<!-- 14253420480 -->
<g id="node3" class="node">
<title>14253420480</title>
<ellipse fill="white" stroke="black" cx="27" cy="-18" rx="27" ry="18"/>
<text xml:space="preserve" text-anchor="middle" x="27" y="-12.95" font-family="Times,serif" font-size="14.00">U3</text>
</g>
<!-- 14253417408 -->
<g id="node4" class="node">
<title>14253417408</title>
<ellipse fill="lightblue" stroke="black" cx="117" cy="-33" rx="27" ry="18"/>
<text xml:space="preserve" text-anchor="middle" x="117" y="-27.95" font-family="Times,serif" font-size="14.00">Can</text>
</g>
<!-- 14253420480&#45;&gt;14253417408 -->
<g id="edge4" class="edge">
<title>14253420480&#45;&gt;14253417408</title>
<path fill="none" stroke="black" d="M53.45,-22.34C61.5,-23.71 70.56,-25.25 79.24,-26.73"/>
<polygon fill="black" stroke="black" points="78.36,-30.13 88.81,-28.36 79.54,-23.23 78.36,-30.13"/>
</g>
<!-- 14253410736 -->
<g id="node9" class="node">
<title>14253410736</title>
<ellipse fill="lightblue" stroke="black" cx="297" cy="-60" rx="27" ry="18"/>
<text xml:space="preserve" text-anchor="middle" x="297" y="-54.95" font-family="Times,serif" font-size="14.00">Can</text>
</g>
<!-- 14253417408&#45;&gt;14253410736 -->
<g id="edge6" class="edge">
<title>14253417408&#45;&gt;14253410736</title>
<path fill="none" stroke="black" d="M143.27,-28.34C167.02,-24.84 203.41,-21.78 234,-29 245.3,-31.67 256.89,-36.73 266.95,-42"/>
<polygon fill="black" stroke="black" points="265.03,-44.94 275.47,-46.74 268.43,-38.82 265.03,-44.94"/>
</g>
<!-- 14253416880 -->
<g id="node10" class="node">
<title>14253416880</title>
<ellipse fill="white" stroke="black" cx="207" cy="-56" rx="27" ry="18"/>
<text xml:space="preserve" text-anchor="middle" x="207" y="-50.95" font-family="Times,serif" font-size="14.00">U3</text>
</g>
<!-- 14253417408&#45;&gt;14253416880 -->
<g id="edge5" class="edge">
<title>14253417408&#45;&gt;14253416880</title>
<path fill="none" stroke="black" d="M142.51,-39.41C151.12,-41.66 160.97,-44.23 170.3,-46.67"/>
<polygon fill="black" stroke="black" points="169.29,-50.02 179.85,-49.17 171.06,-43.25 169.29,-50.02"/>
</g>
<!-- 14253422160 -->
<g id="node5" class="node">
<title>14253422160</title>
<ellipse fill="lightblue" stroke="black" cx="27" cy="-72" rx="27" ry="18"/>
<text xml:space="preserve" text-anchor="middle" x="27" y="-66.95" font-family="Times,serif" font-size="14.00">Can</text>
</g>
<!-- 14253422160&#45;&gt;14253410832 -->
<g id="edge7" class="edge">
<title>14253422160&#45;&gt;14253410832</title>
<path fill="none" stroke="black" d="M48.85,-82.9C59.63,-88.53 72.98,-95.51 84.94,-101.77"/>
<polygon fill="black" stroke="black" points="83.16,-104.79 93.65,-106.32 86.41,-98.58 83.16,-104.79"/>
</g>
<!-- 14253422160&#45;&gt;14253417408 -->
<g id="edge8" class="edge">
<title>14253422160&#45;&gt;14253417408</title>
<path fill="none" stroke="black" d="M50.21,-62.16C60.32,-57.68 72.48,-52.29 83.58,-47.37"/>
<polygon fill="black" stroke="black" points="84.69,-50.7 92.42,-43.45 81.86,-44.3 84.69,-50.7"/>
</g>
<!-- 14253423936 -->
<g id="node8" class="node">
<title>14253423936</title>
<ellipse fill="lightblue" stroke="black" cx="297" cy="-139" rx="27" ry="18"/>
<text xml:space="preserve" text-anchor="middle" x="297" y="-133.95" font-family="Times,serif" font-size="14.00">Can</text>
</g>
<!-- 14253422496&#45;&gt;14253423936 -->
<g id="edge9" class="edge">
<title>14253422496&#45;&gt;14253423936</title>
<path fill="none" stroke="black" d="M232.05,-157.17C240.9,-154.65 251.12,-151.75 260.75,-149.01"/>
<polygon fill="black" stroke="black" points="261.56,-152.42 270.22,-146.32 259.65,-145.69 261.56,-152.42"/>
</g>
<!-- 14253413760&#45;&gt;14253410736 -->
<g id="edge10" class="edge">
<title>14253413760&#45;&gt;14253410736</title>
<path fill="none" stroke="black" d="M228.41,-98.4C239.52,-92.09 253.47,-84.16 265.81,-77.15"/>
<polygon fill="black" stroke="black" points="267.42,-80.26 274.38,-72.28 263.96,-74.18 267.42,-80.26"/>
</g>
<!-- 14253416352 -->
<g id="node11" class="node">
<title>14253416352</title>
<ellipse fill="white" stroke="black" cx="387" cy="-87" rx="27" ry="18"/>
<text xml:space="preserve" text-anchor="middle" x="387" y="-81.95" font-family="Times,serif" font-size="14.00">U3</text>
</g>
<!-- 14253410736&#45;&gt;14253416352 -->
<g id="edge11" class="edge">
<title>14253410736&#45;&gt;14253416352</title>
<path fill="none" stroke="black" d="M322.05,-67.38C330.97,-70.12 341.29,-73.28 350.99,-76.26"/>
<polygon fill="black" stroke="black" points="349.95,-79.6 360.54,-79.19 352,-72.91 349.95,-79.6"/>
</g>
<!-- 14253417024 -->
<g id="node12" class="node">
<title>14253417024</title>
<ellipse fill="white" stroke="black" cx="387" cy="-33" rx="27" ry="18"/>
<text xml:space="preserve" text-anchor="middle" x="387" y="-27.95" font-family="Times,serif" font-size="14.00">U3</text>
</g>
<!-- 14253410736&#45;&gt;14253417024 -->
<g id="edge12" class="edge">
<title>14253410736&#45;&gt;14253417024</title>
<path fill="none" stroke="black" d="M322.05,-52.62C330.97,-49.88 341.29,-46.72 350.99,-43.74"/>
<polygon fill="black" stroke="black" points="352,-47.09 360.54,-40.81 349.95,-40.4 352,-47.09"/>
</g>
<!-- 14253416880&#45;&gt;14253423936 -->
<g id="edge13" class="edge">
<title>14253416880&#45;&gt;14253423936</title>
<path fill="none" stroke="black" d="M223.33,-70.46C236.87,-83.23 256.84,-102.06 272.42,-116.76"/>
<polygon fill="black" stroke="black" points="269.77,-119.08 279.45,-123.39 274.58,-113.98 269.77,-119.08"/>
</g>
</g>
</svg>
