<?xml version="1.0" encoding="UTF-8" standalone="no"?>
<!DOCTYPE svg PUBLIC "-//W3C//DTD SVG 1.1//EN"
 "http://www.w3.org/Graphics/SVG/1.1/DTD/svg11.dtd">
<!-- Generated by graphviz version 13.1.1 (20250719.2154)
 -->
<!-- Title: G Pages: 1 -->
<svg width="548pt" height="171pt"
 viewBox="0.00 0.00 548.00 171.00" xmlns="http://www.w3.org/2000/svg" xmlns:xlink="http://www.w3.org/1999/xlink">
<g id="graph0" class="graph" transform="scale(1 1) rotate(0) translate(4 167)">
<title>G</title>
<polygon fill="white" stroke="none" points="-4,4 -4,-167 543.99,-167 543.99,4 -4,4"/>
<!-- 14245689680 -->
<g id="node1" class="node">
<title>14245689680</title>
<ellipse fill="white" stroke="black" cx="27" cy="-126" rx="27" ry="18"/>
<text xml:space="preserve" text-anchor="middle" x="27" y="-120.95" font-family="Times,serif" font-size="14.00">U3</text>
</g>
<!-- 14245688288 -->
<g id="node2" class="node">
<title>14245688288</title>
<ellipse fill="lightblue" stroke="black" cx="117" cy="-99" rx="27" ry="18"/>
<text xml:space="preserve" text-anchor="middle" x="117" y="-93.95" font-family="Times,serif" font-size="14.00">Can</text>
</g>
<!-- 14245689680&#45;&gt;14245688288 -->
<g id="edge1" class="edge">
<title>14245689680&#45;&gt;14245688288</title>
<path fill="none" stroke="black" d="M52.05,-118.62C60.97,-115.88 71.29,-112.72 80.99,-109.74"/>
<polygon fill="black" stroke="black" points="82,-113.09 90.54,-106.81 79.95,-106.4 82,-113.09"/>
</g>
<!-- 14245680464 -->
<g id="node6" class="node">
<title>14245680464</title>
<ellipse fill="white" stroke="black" cx="314.99" cy="-145" rx="27" ry="18"/>
<text xml:space="preserve" text-anchor="middle" x="314.99" y="-139.95" font-family="Times,serif" font-size="14.00">U3</text>
</g>
<!-- 14245688288&#45;&gt;14245680464 -->
<g id="edge2" class="edge">
<title>14245688288&#45;&gt;14245680464</title>
<path fill="none" stroke="black" d="M139,-109.84C150.77,-115.47 165.88,-122 180,-126 211.8,-135 249.12,-139.85 276.28,-142.39"/>
<polygon fill="black" stroke="black" points="275.85,-145.86 286.12,-143.24 276.46,-138.89 275.85,-145.86"/>
</g>
<!-- 14245682048 -->
<g id="node7" class="node">
<title>14245682048</title>
<ellipse fill="white" stroke="black" cx="216" cy="-99" rx="27" ry="18"/>
<text xml:space="preserve" text-anchor="middle" x="216" y="-93.95" font-family="Times,serif" font-size="14.00">U3</text>
</g>
<!-- 14245688288&#45;&gt;14245682048 -->
<g id="edge3" class="edge">
<title>14245688288&#45;&gt;14245682048</title>
<path fill="none" stroke="black" d="M144.25,-99C154.49,-99 166.43,-99 177.54,-99"/>
<polygon fill="black" stroke="black" points="177.21,-102.5 187.21,-99 177.21,-95.5 177.21,-102.5"/>
</g>
<!-- 14245689968 -->
<g id="node3" class="node">
<title>14245689968</title>
<ellipse fill="white" stroke="black" cx="27" cy="-18" rx="27" ry="18"/>
<text xml:space="preserve" text-anchor="middle" x="27" y="-12.95" font-family="Times,serif" font-size="14.00">U3</text>
</g>
<!-- 14245686464 -->
<g id="node4" class="node">
<title>14245686464</title>
<ellipse fill="lightblue" stroke="black" cx="117" cy="-45" rx="27" ry="18"/>
<text xml:space="preserve" text-anchor="middle" x="117" y="-39.95" font-family="Times,serif" font-size="14.00">Can</text>
</g>
<!-- 14245689968&#45;&gt;14245686464 -->
<g id="edge4" class="edge">
<title>14245689968&#45;&gt;14245686464</title>
<path fill="none" stroke="black" d="M52.05,-25.38C60.97,-28.12 71.29,-31.28 80.99,-34.26"/>
<polygon fill="black" stroke="black" points="79.95,-37.6 90.54,-37.19 82,-30.91 79.95,-37.6"/>
</g>
<!-- 14245675520 -->
<g id="node10" class="node">
<title>14245675520</title>
<ellipse fill="lightpink" stroke="black" cx="216" cy="-45" rx="36" ry="18"/>
<text xml:space="preserve" text-anchor="middle" x="216" y="-39.95" font-family="Times,serif" font-size="14.00">SWAP</text>
</g>
<!-- 14245686464&#45;&gt;14245675520 -->
<g id="edge5" class="edge">
<title>14245686464&#45;&gt;14245675520</title>
<path fill="none" stroke="black" d="M144.25,-45C151.65,-45 159.93,-45 168.14,-45"/>
<polygon fill="black" stroke="black" points="168.11,-48.5 178.11,-45 168.11,-41.5 168.11,-48.5"/>
</g>
<!-- 14245683008 -->
<g id="node5" class="node">
<title>14245683008</title>
<ellipse fill="lightblue" stroke="black" cx="27" cy="-72" rx="27" ry="18"/>
<text xml:space="preserve" text-anchor="middle" x="27" y="-66.95" font-family="Times,serif" font-size="14.00">Can</text>
</g>
<!-- 14245683008&#45;&gt;14245688288 -->
<g id="edge6" class="edge">
<title>14245683008&#45;&gt;14245688288</title>
<path fill="none" stroke="black" d="M52.05,-79.38C60.97,-82.12 71.29,-85.28 80.99,-88.26"/>
<polygon fill="black" stroke="black" points="79.95,-91.6 90.54,-91.19 82,-84.91 79.95,-91.6"/>
</g>
<!-- 14245683008&#45;&gt;14245686464 -->
<g id="edge7" class="edge">
<title>14245683008&#45;&gt;14245686464</title>
<path fill="none" stroke="black" d="M52.05,-64.62C60.97,-61.88 71.29,-58.72 80.99,-55.74"/>
<polygon fill="black" stroke="black" points="82,-59.09 90.54,-52.81 79.95,-52.4 82,-59.09"/>
</g>
<!-- 14245677152 -->
<g id="node8" class="node">
<title>14245677152</title>
<ellipse fill="lightpink" stroke="black" cx="413.99" cy="-145" rx="36" ry="18"/>
<text xml:space="preserve" text-anchor="middle" x="413.99" y="-139.95" font-family="Times,serif" font-size="14.00">SWAP</text>
</g>
<!-- 14245680464&#45;&gt;14245677152 -->
<g id="edge8" class="edge">
<title>14245680464&#45;&gt;14245677152</title>
<path fill="none" stroke="black" d="M342.24,-145C349.64,-145 357.92,-145 366.14,-145"/>
<polygon fill="black" stroke="black" points="366.1,-148.5 376.1,-145 366.1,-141.5 366.1,-148.5"/>
</g>
<!-- 14245680224 -->
<g id="node9" class="node">
<title>14245680224</title>
<ellipse fill="lightblue" stroke="black" cx="314.99" cy="-91" rx="27" ry="18"/>
<text xml:space="preserve" text-anchor="middle" x="314.99" y="-85.95" font-family="Times,serif" font-size="14.00">Can</text>
</g>
<!-- 14245682048&#45;&gt;14245680224 -->
<g id="edge9" class="edge">
<title>14245682048&#45;&gt;14245680224</title>
<path fill="none" stroke="black" d="M243.25,-96.84C253.49,-95.99 265.42,-95.01 276.54,-94.09"/>
<polygon fill="black" stroke="black" points="276.54,-97.6 286.22,-93.29 275.96,-90.62 276.54,-97.6"/>
</g>
<!-- 14245683392 -->
<g id="node12" class="node">
<title>14245683392</title>
<ellipse fill="lightblue" stroke="black" cx="512.99" cy="-64" rx="27" ry="18"/>
<text xml:space="preserve" text-anchor="middle" x="512.99" y="-58.95" font-family="Times,serif" font-size="14.00">Can</text>
</g>
<!-- 14245677152&#45;&gt;14245683392 -->
<g id="edge10" class="edge">
<title>14245677152&#45;&gt;14245683392</title>
<path fill="none" stroke="black" d="M434.77,-130.07C439.78,-126.19 445.12,-121.99 449.99,-118 462.53,-107.72 476.15,-95.92 487.43,-85.99"/>
<polygon fill="black" stroke="black" points="489.6,-88.73 494.76,-79.48 484.96,-83.5 489.6,-88.73"/>
</g>
<!-- 14245681760 -->
<g id="node14" class="node">
<title>14245681760</title>
<ellipse fill="white" stroke="black" cx="512.99" cy="-145" rx="27" ry="18"/>
<text xml:space="preserve" text-anchor="middle" x="512.99" y="-139.95" font-family="Times,serif" font-size="14.00">U3</text>
</g>
<!-- 14245677152&#45;&gt;14245681760 -->
<g id="edge11" class="edge">
<title>14245677152&#45;&gt;14245681760</title>
<path fill="none" stroke="black" d="M450.28,-145C458.15,-145 466.51,-145 474.45,-145"/>
<polygon fill="black" stroke="black" points="474.18,-148.5 484.18,-145 474.18,-141.5 474.18,-148.5"/>
</g>
<!-- 14245680224&#45;&gt;14245677152 -->
<g id="edge12" class="edge">
<title>14245680224&#45;&gt;14245677152</title>
<path fill="none" stroke="black" d="M336.56,-102.45C348.92,-109.33 364.93,-118.24 379.11,-126.14"/>
<polygon fill="black" stroke="black" points="377.27,-129.12 387.71,-130.92 380.67,-123 377.27,-129.12"/>
</g>
<!-- 14245687136 -->
<g id="node13" class="node">
<title>14245687136</title>
<ellipse fill="white" stroke="black" cx="413.99" cy="-91" rx="27" ry="18"/>
<text xml:space="preserve" text-anchor="middle" x="413.99" y="-85.95" font-family="Times,serif" font-size="14.00">U3</text>
</g>
<!-- 14245680224&#45;&gt;14245687136 -->
<g id="edge13" class="edge">
<title>14245680224&#45;&gt;14245687136</title>
<path fill="none" stroke="black" d="M342.24,-91C352.49,-91 364.42,-91 375.54,-91"/>
<polygon fill="black" stroke="black" points="375.21,-94.5 385.21,-91 375.21,-87.5 375.21,-94.5"/>
</g>
<!-- 14245675520&#45;&gt;14245680224 -->
<g id="edge15" class="edge">
<title>14245675520&#45;&gt;14245680224</title>
<path fill="none" stroke="black" d="M242.99,-57.33C255,-63.02 269.38,-69.84 282.05,-75.85"/>
<polygon fill="black" stroke="black" points="280.3,-78.89 290.83,-80.01 283.29,-72.57 280.3,-78.89"/>
</g>
<!-- 14245679312 -->
<g id="node11" class="node">
<title>14245679312</title>
<ellipse fill="white" stroke="black" cx="413.99" cy="-37" rx="27" ry="18"/>
<text xml:space="preserve" text-anchor="middle" x="413.99" y="-31.95" font-family="Times,serif" font-size="14.00">U3</text>
</g>
<!-- 14245675520&#45;&gt;14245679312 -->
<g id="edge14" class="edge">
<title>14245675520&#45;&gt;14245679312</title>
<path fill="none" stroke="black" d="M252.04,-43.57C286.76,-42.15 339.77,-39.99 375.37,-38.54"/>
<polygon fill="black" stroke="black" points="375.36,-42.04 385.21,-38.13 375.07,-35.04 375.36,-42.04"/>
</g>
<!-- 14245679312&#45;&gt;14245683392 -->
<g id="edge16" class="edge">
<title>14245679312&#45;&gt;14245683392</title>
<path fill="none" stroke="black" d="M439.47,-43.81C450.73,-46.95 464.29,-50.72 476.63,-54.16"/>
<polygon fill="black" stroke="black" points="475.49,-57.47 486.06,-56.78 477.37,-50.73 475.49,-57.47"/>
</g>
</g>
</svg>
