<?xml version="1.0" encoding="UTF-8" standalone="no"?>
<!DOCTYPE svg PUBLIC "-//W3C//DTD SVG 1.1//EN"
 "http://www.w3.org/Graphics/SVG/1.1/DTD/svg11.dtd">
<!-- Generated by graphviz version 13.1.1 (20250719.2154)
 -->
<!-- Title: G Pages: 1 -->
<svg width="620pt" height="175pt"
 viewBox="0.00 0.00 620.00 175.00" xmlns="http://www.w3.org/2000/svg" xmlns:xlink="http://www.w3.org/1999/xlink">
<g id="graph0" class="graph" transform="scale(1 1) rotate(0) translate(4 171)">
<title>G</title>
<polygon fill="white" stroke="none" points="-4,4 -4,-171 615.99,-171 615.99,4 -4,4"/>
<!-- 14272036688 -->
<g id="node1" class="node">
<title>14272036688</title>
<ellipse fill="white" stroke="black" cx="117" cy="-121" rx="27" ry="18"/>
<text xml:space="preserve" text-anchor="middle" x="117" y="-115.95" font-family="Times,serif" font-size="14.00">U3</text>
</g>
<!-- 14272028048 -->
<g id="node2" class="node">
<title>14272028048</title>
<ellipse fill="lightblue" stroke="black" cx="207" cy="-120" rx="27" ry="18"/>
<text xml:space="preserve" text-anchor="middle" x="207" y="-114.95" font-family="Times,serif" font-size="14.00">Can</text>
</g>
<!-- 14272036688&#45;&gt;14272028048 -->
<g id="edge1" class="edge">
<title>14272036688&#45;&gt;14272028048</title>
<path fill="none" stroke="black" d="M144.4,-120.7C151.89,-120.61 160.18,-120.52 168.2,-120.43"/>
<polygon fill="black" stroke="black" points="168.14,-123.93 178.1,-120.32 168.06,-116.93 168.14,-123.93"/>
</g>
<!-- 14272028768 -->
<g id="node5" class="node">
<title>14272028768</title>
<ellipse fill="white" stroke="black" cx="387" cy="-149" rx="27" ry="18"/>
<text xml:space="preserve" text-anchor="middle" x="387" y="-143.95" font-family="Times,serif" font-size="14.00">U3</text>
</g>
<!-- 14272028048&#45;&gt;14272028768 -->
<g id="edge2" class="edge">
<title>14272028048&#45;&gt;14272028768</title>
<path fill="none" stroke="black" d="M233.5,-124.15C263.82,-129.09 314.64,-137.37 349.21,-143.01"/>
<polygon fill="black" stroke="black" points="348.33,-146.41 358.76,-144.56 349.45,-139.5 348.33,-146.41"/>
</g>
<!-- 14272033184 -->
<g id="node6" class="node">
<title>14272033184</title>
<ellipse fill="lightblue" stroke="black" cx="297" cy="-74" rx="27" ry="18"/>
<text xml:space="preserve" text-anchor="middle" x="297" y="-68.95" font-family="Times,serif" font-size="14.00">Can</text>
</g>
<!-- 14272028048&#45;&gt;14272033184 -->
<g id="edge3" class="edge">
<title>14272028048&#45;&gt;14272033184</title>
<path fill="none" stroke="black" d="M228.85,-109.1C239.63,-103.47 252.98,-96.49 264.94,-90.23"/>
<polygon fill="black" stroke="black" points="266.41,-93.42 273.65,-85.68 263.16,-87.21 266.41,-93.42"/>
</g>
<!-- 14272026704 -->
<g id="node3" class="node">
<title>14272026704</title>
<ellipse fill="lightblue" stroke="black" cx="27" cy="-75" rx="27" ry="18"/>
<text xml:space="preserve" text-anchor="middle" x="27" y="-69.95" font-family="Times,serif" font-size="14.00">Can</text>
</g>
<!-- 14272026704&#45;&gt;14272028048 -->
<g id="edge4" class="edge">
<title>14272026704&#45;&gt;14272028048</title>
<path fill="none" stroke="black" d="M54.19,-77.51C77.95,-80.21 113.79,-85.32 144,-94 154.11,-96.9 164.78,-100.98 174.37,-105.05"/>
<polygon fill="black" stroke="black" points="172.7,-108.14 183.26,-108.97 175.52,-101.73 172.7,-108.14"/>
</g>
<!-- 14272032416 -->
<g id="node4" class="node">
<title>14272032416</title>
<ellipse fill="lightblue" stroke="black" cx="117" cy="-22" rx="27" ry="18"/>
<text xml:space="preserve" text-anchor="middle" x="117" y="-16.95" font-family="Times,serif" font-size="14.00">Can</text>
</g>
<!-- 14272026704&#45;&gt;14272032416 -->
<g id="edge5" class="edge">
<title>14272026704&#45;&gt;14272032416</title>
<path fill="none" stroke="black" d="M47.53,-63.24C58.96,-56.36 73.61,-47.53 86.43,-39.81"/>
<polygon fill="black" stroke="black" points="88.16,-42.85 94.92,-34.69 84.55,-36.85 88.16,-42.85"/>
</g>
<!-- 14272031696 -->
<g id="node9" class="node">
<title>14272031696</title>
<ellipse fill="white" stroke="black" cx="207" cy="-65" rx="27" ry="18"/>
<text xml:space="preserve" text-anchor="middle" x="207" y="-59.95" font-family="Times,serif" font-size="14.00">U3</text>
</g>
<!-- 14272032416&#45;&gt;14272031696 -->
<g id="edge6" class="edge">
<title>14272032416&#45;&gt;14272031696</title>
<path fill="none" stroke="black" d="M139.3,-32.41C149.82,-37.55 162.71,-43.85 174.36,-49.54"/>
<polygon fill="black" stroke="black" points="172.71,-52.63 183.23,-53.87 175.78,-46.34 172.71,-52.63"/>
</g>
<!-- 14249238144 -->
<g id="node10" class="node">
<title>14249238144</title>
<ellipse fill="white" stroke="black" cx="297" cy="-18" rx="27" ry="18"/>
<text xml:space="preserve" text-anchor="middle" x="297" y="-12.95" font-family="Times,serif" font-size="14.00">U3</text>
</g>
<!-- 14272032416&#45;&gt;14249238144 -->
<g id="edge7" class="edge">
<title>14272032416&#45;&gt;14249238144</title>
<path fill="none" stroke="black" d="M144.26,-21.41C174.37,-20.73 223.96,-19.62 258.21,-18.85"/>
<polygon fill="black" stroke="black" points="258.2,-22.35 268.11,-18.63 258.04,-15.35 258.2,-22.35"/>
</g>
<!-- 14255895328 -->
<g id="node7" class="node">
<title>14255895328</title>
<ellipse fill="lightpink" stroke="black" cx="486" cy="-95" rx="36" ry="18"/>
<text xml:space="preserve" text-anchor="middle" x="486" y="-89.95" font-family="Times,serif" font-size="14.00">SWAP</text>
</g>
<!-- 14272028768&#45;&gt;14255895328 -->
<g id="edge8" class="edge">
<title>14272028768&#45;&gt;14255895328</title>
<path fill="none" stroke="black" d="M408.57,-137.55C420.92,-130.67 436.94,-121.76 451.12,-113.86"/>
<polygon fill="black" stroke="black" points="452.68,-117 459.71,-109.08 449.27,-110.88 452.68,-117"/>
</g>
<!-- 14272033088 -->
<g id="node11" class="node">
<title>14272033088</title>
<ellipse fill="white" stroke="black" cx="387" cy="-95" rx="27" ry="18"/>
<text xml:space="preserve" text-anchor="middle" x="387" y="-89.95" font-family="Times,serif" font-size="14.00">U3</text>
</g>
<!-- 14272033184&#45;&gt;14272033088 -->
<g id="edge9" class="edge">
<title>14272033184&#45;&gt;14272033088</title>
<path fill="none" stroke="black" d="M322.98,-79.96C331.41,-81.97 341,-84.26 350.11,-86.43"/>
<polygon fill="black" stroke="black" points="349.25,-89.83 359.79,-88.74 350.87,-83.02 349.25,-89.83"/>
</g>
<!-- 14249239344 -->
<g id="node12" class="node">
<title>14249239344</title>
<ellipse fill="white" stroke="black" cx="387" cy="-41" rx="27" ry="18"/>
<text xml:space="preserve" text-anchor="middle" x="387" y="-35.95" font-family="Times,serif" font-size="14.00">U3</text>
</g>
<!-- 14272033184&#45;&gt;14249239344 -->
<g id="edge10" class="edge">
<title>14272033184&#45;&gt;14249239344</title>
<path fill="none" stroke="black" d="M321.12,-65.33C330.72,-61.73 342.05,-57.48 352.53,-53.55"/>
<polygon fill="black" stroke="black" points="353.48,-56.93 361.62,-50.14 351.02,-50.38 353.48,-56.93"/>
</g>
<!-- 14249237856 -->
<g id="node13" class="node">
<title>14249237856</title>
<ellipse fill="lightblue" stroke="black" cx="584.99" cy="-68" rx="27" ry="18"/>
<text xml:space="preserve" text-anchor="middle" x="584.99" y="-62.95" font-family="Times,serif" font-size="14.00">Can</text>
</g>
<!-- 14255895328&#45;&gt;14249237856 -->
<g id="edge11" class="edge">
<title>14255895328&#45;&gt;14249237856</title>
<path fill="none" stroke="black" d="M517.95,-86.38C527.7,-83.67 538.54,-80.65 548.58,-77.86"/>
<polygon fill="black" stroke="black" points="549.31,-81.29 558,-75.23 547.43,-74.54 549.31,-81.29"/>
</g>
<!-- 14272031216 -->
<g id="node8" class="node">
<title>14272031216</title>
<ellipse fill="white" stroke="black" cx="27" cy="-21" rx="27" ry="18"/>
<text xml:space="preserve" text-anchor="middle" x="27" y="-15.95" font-family="Times,serif" font-size="14.00">U3</text>
</g>
<!-- 14272031216&#45;&gt;14272032416 -->
<g id="edge12" class="edge">
<title>14272031216&#45;&gt;14272032416</title>
<path fill="none" stroke="black" d="M54.4,-21.3C61.89,-21.39 70.18,-21.48 78.2,-21.57"/>
<polygon fill="black" stroke="black" points="78.06,-25.07 88.1,-21.68 78.14,-18.07 78.06,-25.07"/>
</g>
<!-- 14272031696&#45;&gt;14272033184 -->
<g id="edge13" class="edge">
<title>14272031696&#45;&gt;14272033184</title>
<path fill="none" stroke="black" d="M233.93,-67.65C241.65,-68.44 250.26,-69.32 258.56,-70.17"/>
<polygon fill="black" stroke="black" points="258.14,-73.65 268.45,-71.18 258.86,-66.68 258.14,-73.65"/>
</g>
<!-- 14249236752 -->
<g id="node14" class="node">
<title>14249236752</title>
<ellipse fill="lightpink" stroke="black" cx="486" cy="-41" rx="36" ry="18"/>
<text xml:space="preserve" text-anchor="middle" x="486" y="-35.95" font-family="Times,serif" font-size="14.00">SWAP</text>
</g>
<!-- 14249238144&#45;&gt;14249236752 -->
<g id="edge14" class="edge">
<title>14249238144&#45;&gt;14249236752</title>
<path fill="none" stroke="black" d="M323.58,-13.99C347.24,-11.01 383.28,-8.36 414,-14 425.67,-16.14 437.91,-20.12 448.88,-24.37"/>
<polygon fill="black" stroke="black" points="447.37,-27.53 457.95,-28.08 450.02,-21.06 447.37,-27.53"/>
</g>
<!-- 14272033088&#45;&gt;14255895328 -->
<g id="edge15" class="edge">
<title>14272033088&#45;&gt;14255895328</title>
<path fill="none" stroke="black" d="M414.25,-95C421.65,-95 429.93,-95 438.14,-95"/>
<polygon fill="black" stroke="black" points="438.11,-98.5 448.11,-95 438.11,-91.5 438.11,-98.5"/>
</g>
<!-- 14249239344&#45;&gt;14249236752 -->
<g id="edge16" class="edge">
<title>14249239344&#45;&gt;14249236752</title>
<path fill="none" stroke="black" d="M414.25,-41C421.65,-41 429.93,-41 438.14,-41"/>
<polygon fill="black" stroke="black" points="438.11,-44.5 448.11,-41 438.11,-37.5 438.11,-44.5"/>
</g>
<!-- 14249236752&#45;&gt;14249237856 -->
<g id="edge17" class="edge">
<title>14249236752&#45;&gt;14249237856</title>
<path fill="none" stroke="black" d="M517.95,-49.62C527.7,-52.33 538.54,-55.35 548.58,-58.14"/>
<polygon fill="black" stroke="black" points="547.43,-61.46 558,-60.77 549.31,-54.71 547.43,-61.46"/>
</g>
</g>
</svg>
